HIERARCHY
ROOT Hips
{
	OFFSET 0.00000 0.00000 0.00000
	CHANNELS 6 Xposition Yposition Zposition Zrotation Yrotation Xrotation 
	JOINT LHipJoint
	{
		OFFSET 0 0 0
		CHANNELS 3 Zrotation Yrotation Xrotation
		JOINT LeftUpLeg
		{
			OFFSET 1.62067 -1.77917 0.70989
			CHANNELS 3 Zrotation Yrotation Xrotation
			JOINT LeftLeg
			{
				OFFSET 2.34532 -6.44371 0.00000
				CHANNELS 3 Zrotation Yrotation Xrotation
				JOINT LeftFoot
				{
					OFFSET 2.74224 -7.53425 0.00000
					CHANNELS 3 Zrotation Yrotation Xrotation
					JOINT LeftToeBase
					{
						OFFSET 0.17032 -0.46794 2.08086
						CHANNELS 3 Zrotation Yrotation Xrotation
						End Site
						{
							OFFSET 0.00000 -0.00000 1.07476
						}
					}
				}
			}
		}
	}
	JOINT RHipJoint
	{
		OFFSET 0 0 0
		CHANNELS 3 Zrotation Yrotation Xrotation
		JOINT RightUpLeg
		{
			OFFSET -1.55811 -1.77917 0.70989
			CHANNELS 3 Zrotation Yrotation Xrotation
			JOINT RightLeg
			{
				OFFSET -2.33243 -6.40830 0.00000
				CHANNELS 3 Zrotation Yrotation Xrotation
				JOINT RightFoot
				{
					OFFSET -2.78798 -7.65993 0.00000
					CHANNELS 3 Zrotation Yrotation Xrotation
					JOINT RightToeBase
					{
						OFFSET -0.22707 -0.62388 2.04059
						CHANNELS 3 Zrotation Yrotation Xrotation
						End Site
						{
							OFFSET -0.00000 -0.00000 1.07030
						}
					}
				}
			}
		}
	}
	JOINT LowerBack
	{
		OFFSET 0 0 0
		CHANNELS 3 Zrotation Yrotation Xrotation
		JOINT Spine
		{
			OFFSET 0.02203 1.91565 0.07161
			CHANNELS 3 Zrotation Yrotation Xrotation
			JOINT Spine1
			{
				OFFSET 0.01740 1.90525 0.11636
				CHANNELS 3 Zrotation Yrotation Xrotation
				JOINT Neck
				{
					OFFSET 0 0 0
					CHANNELS 3 Zrotation Yrotation Xrotation
					JOINT Neck1
					{
						OFFSET -0.10841 1.83566 0.05067
						CHANNELS 3 Zrotation Yrotation Xrotation
						JOINT Head
						{
							OFFSET 0.06601 1.74760 -0.50505
							CHANNELS 3 Zrotation Yrotation Xrotation
							End Site
							{
								OFFSET 0.03102 1.85215 -0.17697
							}
						}
					}
				}
				JOINT LeftShoulder
				{
					OFFSET 0 0 0
					CHANNELS 3 Zrotation Yrotation Xrotation
					JOINT LeftArm
					{
						OFFSET 2.87059 1.35470 0.16111
						CHANNELS 3 Zrotation Yrotation Xrotation
						JOINT LeftForeArm
						{
							OFFSET 5.43592 -0.00000 0.00000
							CHANNELS 3 Zrotation Yrotation Xrotation
							JOINT LeftHand
							{
								OFFSET 3.25460 -0.00000 0.00000
								CHANNELS 3 Zrotation Yrotation Xrotation
								JOINT LeftFingerBase
								{
									OFFSET 0 0 0
									CHANNELS 3 Zrotation Yrotation Xrotation
									JOINT LeftHandIndex1
									{
										OFFSET 0.49824 -0.00000 0.00000
										CHANNELS 3 Zrotation Yrotation Xrotation
										End Site
										{
											OFFSET 0.40170 -0.00000 0.00000
										}
									}
								}
								JOINT LThumb
								{
									OFFSET 0 0 0
									CHANNELS 3 Zrotation Yrotation Xrotation
									End Site
									{
										OFFSET 0.40783 -0.00000 0.40783
									}
								}
							}
						}
					}
				}
				JOINT RightShoulder
				{
					OFFSET 0 0 0
					CHANNELS 3 Zrotation Yrotation Xrotation
					JOINT RightArm
					{
						OFFSET -2.86643 1.23488 0.45957
						CHANNELS 3 Zrotation Yrotation Xrotation
						JOINT RightForeArm
						{
							OFFSET -5.33830 -0.00000 0.00000
							CHANNELS 3 Zrotation Yrotation Xrotation
							JOINT RightHand
							{
								OFFSET -3.23148 -0.00000 0.00000
								CHANNELS 3 Zrotation Yrotation Xrotation
								JOINT RightFingerBase
								{
									OFFSET 0 0 0
									CHANNELS 3 Zrotation Yrotation Xrotation
									JOINT RightHandIndex1
									{
										OFFSET -0.46364 -0.00000 0.00000
										CHANNELS 3 Zrotation Yrotation Xrotation
										End Site
										{
											OFFSET -0.37380 -0.00000 0.00000
										}
									}
								}
								JOINT RThumb
								{
									OFFSET 0 0 0
									CHANNELS 3 Zrotation Yrotation Xrotation
									End Site
									{
										OFFSET -0.37951 -0.00000 0.37951
									}
								}
							}
						}
					}
				}
			}
		}
	}
}
MOTION
Frames: 12
Frame Time: 0.166667
0.00 0.00 0.00 0 0 0 0 0 0 -21 0 0 0 0 0 0 0 0 0 0 0 0 0 0 21 0 0 0 0 0 0 0 0 0 0 0 0 0 0 0 0 0 0 0 0 0 0 -16 0 0 21 0 0 11 0 0 0 -8 0 0 0 0 0 0 0 0 0 0 0 0 0 0 0 0 0 0 0 0 8 0 0 0 0 0 0 0 0 0 0 0 0 0 0 0 0 0
0.00 0.00 0.00 -0.8216 -0.0157 14.6293 0.0000 0.0000 0.0000 -21.1913 -1.6091 -1.3601 1.9046 8.6646 24.7515 0.3783 -5.0304 -10.9823 1.6635 -8.1270 -23.1004 0.0000 0.0000 0.0000 14.8314 23.7172 -38.2482 -2.7747 -10.3210 30.0226 0.4061 -11.9180 -8.7259 -0.0011 -0.2161 0.5937 -0.6094 -1.9089 -7.3385 1.4861 -2.5132 -4.5495 1.6993 -1.2319 -0.4909 -7.9451 -3.2205 -15.4038 5.0863 -3.7560 23.4235 2.6361 -1.8559 10.2762 0.0000 0.0000 0.0000 -84.4855 3.9054 37.9770 18.2091 -28.4241 -4.6484 -0.0000 0.0000 -10.0953 36.5828 -23.1704 -16.2795 -7.1250 0.0000 -0.0000 4.5448 1.9997 -4.3975 0.0000 0.0000 0.0000 85.3327 -11.6560 33.3582 -17.0988 26.9879 -4.1321 0.0000 0.0000 1.1535 -36.8469 -37.8694 24.7030 7.1250 -0.0000 -0.0000 -4.2215 -74.1229 2.9068
0.00 0.00 0.00 -2.0198 -0.7619 13.6034 0.0000 0.0000 0.0000 -17.9937 1.0802 -9.0756 5.1330 13.5320 41.3940 -0.0577 -4.2891 2.1107 0.1981 -2.8660 -7.9058 0.0000 0.0000 0.0000 19.6362 21.6765 -33.7083 -3.0192 -10.7260 31.3612 0.0270 -8.3413 -11.3421 -0.0816 -1.8421 5.0695 0.7666 -0.9706 -7.2969 1.1816 -1.3324 -5.3539 0.7077 -0.6713 -1.4254 -7.4646 -3.0671 -14.0348 4.4061 -3.6545 25.2647 2.3580 -1.8795 10.6529 -0.0000 0.0000 0.0000 -83.2971 7.6613 37.1068 19.4308 -29.9504 -5.2442 -0.0000 0.0000 -10.3416 35.2208 -23.3818 -15.6512 -7.1250 0.0000 -0.0000 3.6860 2.1402 -3.5533 -0.0000 0.0000 0.0000 85.6786 -12.5385 35.7750 -18.6011 28.9199 -4.8364 0.0000 0.0000 0.9956 -35.4530 -40.4193 24.7818 7.1250 -0.0000 -0.0000 1.0333 -76.2519 -0.7581
0.00 0.00 0.00 -5.4492 -0.7231 13.7364 0.0000 0.0000 0.0000 -12.8035 -0.6208 -20.3496 10.0575 17.4421 59.6805 -0.0139 -2.1272 1.1883 0.4884 -4.4810 -12.4340 0.0000 0.0000 0.0000 25.6405 19.6274 -30.1390 -2.7343 -10.2519 29.7965 -0.1669 -6.0321 -12.1894 -0.1114 -2.1521 5.9262 4.5325 -0.1398 -6.8019 2.0015 -0.3716 -5.8937 -0.4901 -0.2987 -2.3048 -7.7601 -2.8646 -13.1890 4.1523 -3.2887 25.3903 2.3742 -1.7796 10.5118 0.0000 -0.0000 0.0000 -83.6720 9.0300 35.0640 20.1209 -30.7877 -5.5931 -0.0000 0.0000 -10.4665 37.2139 -20.9312 -15.1791 -7.1250 0.0000 -0.0000 5.3539 4.4216 -4.9473 0.0000 -0.0000 0.0000 84.6772 -11.9967 37.0788 -20.7947 31.5879 -5.9420 0.0000 0.0000 3.4034 -35.4831 -38.6391 23.9944 7.1250 -0.0000 -0.0000 -1.0107 -74.4494 0.7027
0.00 0.00 0.00 -6.2543 -1.3202 11.5118 0.0000 0.0000 0.0000 -11.1774 -7.6488 -33.1341 12.9768 18.7738 69.0536 0.4794 0.8195 -13.4009 0.4617 -4.3584 -12.0872 0.0000 0.0000 0.0000 29.2368 17.3085 -24.0171 -3.1827 -10.9851 32.2298 -0.6105 -4.0436 -16.7840 -0.2226 -3.0370 8.3817 6.3786 1.0613 -5.0156 1.8235 1.1960 -3.9966 -1.6446 0.4874 -1.2314 -7.8390 -3.1466 -15.9408 4.1086 -3.4183 25.7464 2.3385 -1.8179 11.1979 -0.0000 -0.0000 0.0000 -84.3739 7.9224 32.3113 20.0855 -30.7453 -5.5750 -0.0000 0.0000 -12.2258 38.6686 -22.5487 -17.0597 -7.1250 0.0000 -0.0000 5.9186 2.1063 -5.7281 -0.0000 -0.0000 0.0000 83.7306 -4.7401 37.5308 -20.4877 31.2255 -5.7821 0.0000 0.0000 3.1858 -36.3290 -39.7526 25.1847 7.1250 -0.0000 -0.0000 -1.4837 -75.8904 1.0773
0.00 0.00 0.00 -6.9649 -1.6928 11.9207 0.0000 0.0000 0.0000 -8.8329 -13.9523 -41.0623 8.2031 16.2666 53.2908 0.6680 2.7755 -16.6917 0.3335 -3.7111 -10.2653 0.0000 0.0000 0.0000 31.5921 13.8693 -20.3187 -3.1063 -10.8651 31.8264 -1.0334 -2.5406 -20.2759 -0.0498 -1.4394 3.9588 7.6421 2.0506 -4.6742 1.6485 2.5174 -4.2829 -2.4833 1.1013 -1.5727 -7.6025 -3.3016 -15.2495 3.9189 -3.7067 25.9490 2.1955 -1.9554 11.1488 -0.0000 -0.0000 0.0000 -84.1087 11.2353 34.2196 19.8657 -30.4802 -5.4631 -0.0000 0.0000 -11.7932 37.3416 -23.1302 -16.6835 -7.1250 0.0000 -0.0000 5.0075 1.8256 -4.8642 -0.0000 -0.0000 0.0000 83.7821 -2.1299 37.1203 -22.4023 33.4287 -6.8061 0.0000 -0.0000 -0.3950 -35.1684 -60.2496 31.4553 7.1250 -0.0000 -0.0000 122.3041 81.9685 129.3898
0.00 0.00 0.00 -8.7998 -4.5216 12.4492 0.0000 0.0000 0.0000 -6.1082 -14.2580 -42.4248 3.9195 12.0525 35.9178 0.4854 4.5949 -15.6491 0.2879 -3.4505 -9.5356 0.0000 0.0000 0.0000 34.2011 11.3352 -12.0520 -1.8073 -8.4526 24.0976 -1.1021 0.2478 -19.7715 -0.1131 -2.1687 5.9722 10.0065 3.4689 -5.8282 1.7567 4.1714 -4.2351 -3.5207 1.9152 -0.5901 -7.3915 -3.1219 -13.5806 4.0726 -3.6530 24.8732 2.2272 -1.9009 10.4141 -0.0000 -0.0000 0.0000 -84.8994 14.7467 33.2523 19.3771 -29.8845 -5.2174 -0.0000 0.0000 -11.9495 36.4989 -22.7688 -15.9798 -7.1250 0.0000 -0.0000 4.5718 2.4860 -4.3834 -0.0000 -0.0000 0.0000 83.8873 -1.6639 38.5819 -22.8447 33.9185 -7.0514 0.0000 0.0000 0.9562 -34.1334 -46.1117 26.0382 7.1250 -0.0000 -0.0000 16.4616 -81.1191 -13.7650
0.00 0.00 0.00 -2.1104 -6.0058 12.9088 0.0000 0.0000 0.0000 -18.3827 -13.7111 -35.6584 3.4968 11.4589 33.8437 0.3190 -2.4738 -10.0994 0.2482 3.2058 8.8524 0.0000 0.0000 0.0000 23.4429 6.9126 -4.8725 -4.8247 -13.1836 40.0599 0.1960 7.9275 1.5360 -2.1868 9.2447 -26.5638 3.8574 2.1388 -12.1682 0.0899 2.3800 -4.8128 -1.7518 1.1498 1.9251 -7.0471 -2.6389 -14.9180 4.6362 -3.1231 24.7019 2.4310 -1.5493 10.5742 -0.0000 -0.0000 0.0000 -85.4784 15.3742 28.9393 16.2850 -25.9056 -3.7696 -0.0000 0.0000 -10.3941 36.1705 -22.7533 -15.7890 -7.1250 0.0000 -0.0000 4.3768 2.5960 -4.1864 -0.0000 -0.0000 0.0000 87.6514 -12.6881 35.6029 -17.2489 27.1847 -4.2004 0.0000 0.0000 3.5941 -32.2656 -44.1143 23.7239 7.1250 -0.0000 -0.0000 14.0297 -78.5856 -11.0098
0.00 0.00 0.00 0.5960 -7.2896 12.2916 0.0000 0.0000 0.0000 -22.7622 -12.5824 -32.0263 3.3532 11.2460 33.1139 0.4744 -2.4103 -12.4043 0.1398 2.4102 6.6407 0.0000 0.0000 0.0000 18.2250 9.6713 -13.6685 -8.9807 -16.7953 56.0235 -0.0883 6.5674 11.3212 -1.4883 7.7071 -21.8280 0.9789 1.7697 -10.4787 -0.6165 2.2533 -5.7281 -0.9557 1.0935 -0.0234 -6.7200 -2.3066 -14.5162 4.6349 -2.7919 25.3797 2.4320 -1.3788 10.7154 0.0000 0.0000 0.0000 -84.2876 14.2368 30.9688 16.8707 -26.6870 -4.0291 -0.0000 0.0000 -10.2852 37.7321 -23.2224 -16.9671 -7.1250 0.0000 -0.0000 5.2225 1.6029 -5.0957 0.0000 0.0000 0.0000 87.2632 -15.0769 36.5512 -17.8900 28.0160 -4.4974 0.0000 0.0000 3.7900 -32.5355 -44.8610 24.2276 7.1250 -0.0000 -0.0000 15.5507 -79.3613 -12.4556
0.00 0.00 0.00 2.8982 -7.7198 10.3188 0.0000 0.0000 0.0000 -27.0585 -12.6841 -25.2411 3.3458 11.2348 33.0758 0.8337 -0.5820 -17.0692 0.1723 2.6743 7.3731 0.0000 0.0000 0.0000 13.4385 14.2355 -29.7284 -14.8309 -19.3469 74.7268 0.1327 -6.5170 -1.3515 -0.2576 3.2654 -9.0185 -1.8620 0.7767 -7.7902 -0.7153 1.1352 -5.1398 0.3846 0.5979 -0.9656 -6.3679 -1.7508 -14.4267 4.1724 -1.9642 24.8105 2.3074 -1.0187 10.4245 0.0000 -0.0000 0.0000 -82.9648 6.9512 34.6583 16.5180 -26.2180 -3.8720 -0.0000 0.0000 -9.2403 37.5950 -21.5627 -15.8003 -7.1250 0.0000 -0.0000 5.4666 3.5764 -5.1388 0.0000 -0.0000 0.0000 87.0237 -14.3170 35.1089 -18.4733 28.7590 -4.7748 0.0000 0.0000 2.5226 -35.9770 -41.5165 25.6956 7.1250 -0.0000 -0.0000 1.4864 -77.5437 -1.1309
0.00 0.00 0.00 4.0700 -6.0597 9.1263 0.0000 0.0000 0.0000 -30.4157 -10.7424 -16.9507 3.1960 11.0057 32.2991 1.5145 -0.7646 -23.0472 0.0452 1.3724 3.7742 0.0000 0.0000 0.0000 10.4961 19.7237 -43.1273 -9.8223 -17.3087 58.8927 -0.0604 -9.7957 -14.9157 -0.2486 3.2086 -8.8600 -4.0314 -0.8283 -6.0824 -0.2524 -0.9247 -4.2893 1.9527 -0.3863 -0.9577 -5.7599 -1.2490 -15.8347 3.3562 -1.1203 25.4681 2.0335 -0.6694 10.8829 -0.0000 -0.0000 0.0000 -82.2782 -2.8488 41.1686 18.5336 -28.8351 -4.8038 -0.0000 0.0000 -9.2259 37.6307 -22.0651 -16.1519 -7.1250 0.0000 -0.0000 5.3909 2.9792 -5.1265 -0.0000 -0.0000 0.0000 86.1557 -11.3203 36.3516 -19.5584 30.1066 -5.3080 0.0000 0.0000 2.1147 -35.0500 -44.6881 26.2587 7.1250 -0.0000 -0.0000 9.9831 -80.2345 -8.1556
0.00 0.00 0.00 -2.0925 1.8451 9.4179 0.0000 0.0000 0.0000 -16.1682 0.7984 -5.2342 5.9372 14.3672 44.7290 -0.3575 -14.1347 15.2594 0.5973 -4.9475 -13.7589 0.0000 0.0000 0.0000 22.2056 17.3318 -30.3596 -2.9531 -10.6188 31.0047 0.1462 -8.8916 -9.4009 -0.0324 -1.1618 3.1942 0.2043 -0.8807 -11.5400 1.3447 -1.2188 -4.7440 1.1249 -0.5981 1.5431 -7.4294 -2.8463 -15.1585 4.6387 -3.4211 28.5424 2.5144 -1.7541 12.1182 -0.0000 0.0000 0.0000 -86.5854 6.0124 38.1161 17.8754 -27.9973 -4.4906 -0.0000 0.0000 -8.4619 35.8607 -23.8747 -16.3073 -7.1250 0.0000 -0.0000 3.9761 1.3998 -3.8872 -0.0000 0.0000 0.0000 86.7972 -15.1144 30.6880 -16.3274 25.9626 -3.7882 0.0000 0.0000 2.7758 -33.8292 -44.8298 25.2898 7.1250 -0.0000 -0.0000 12.9474 -79.8641 -10.4904
